<?xml version="1.0" encoding="UTF-8"?>
<svg xmlns="http://www.w3.org/2000/svg" xmlns:xlink="http://www.w3.org/1999/xlink" viewBox="0 0 100 100" width="100px" height="100px">
<g id="surface48214764">
<path style=" stroke:none;fill-rule:nonzero;fill:rgb(12.156863%,24.313726%,54.509807%);fill-opacity:1;" d="M 69.984375 81.992188 L 30.984375 81.992188 C 24.386719 81.992188 18.984375 76.59375 18.984375 69.992188 L 18.984375 30.992188 C 18.984375 24.390625 24.386719 18.992188 30.984375 18.992188 L 69.984375 18.992188 C 76.585938 18.992188 81.984375 24.390625 81.984375 30.992188 L 81.984375 69.992188 C 81.984375 76.59375 76.585938 81.992188 69.984375 81.992188 Z M 69.984375 81.992188 "/>
<path style=" stroke:none;fill-rule:nonzero;fill:rgb(12.156863%,12.941177%,16.862746%);fill-opacity:1;" d="M 69.984375 82.992188 L 30.984375 82.992188 C 23.804688 82.992188 17.984375 77.171875 17.984375 69.992188 L 17.984375 30.992188 C 17.984375 23.8125 23.804688 17.992188 30.984375 17.992188 L 69.984375 17.992188 C 77.164062 17.992188 82.984375 23.8125 82.984375 30.992188 L 82.984375 69.992188 C 82.984375 77.171875 77.164062 82.992188 69.984375 82.992188 Z M 19.984375 30.992188 L 19.984375 69.992188 C 19.984375 76.066406 24.910156 80.992188 30.984375 80.992188 L 69.984375 80.992188 C 76.0625 80.992188 80.984375 76.066406 80.984375 69.992188 L 80.984375 30.992188 C 80.984375 24.917969 76.0625 19.992188 69.984375 19.992188 L 30.984375 19.992188 C 24.910156 19.992188 19.984375 24.917969 19.984375 30.992188 Z M 19.984375 30.992188 "/>
<path style=" stroke:none;fill-rule:nonzero;fill:rgb(12.156863%,12.941177%,16.862746%);fill-opacity:1;" d="M 67.148438 77.992188 L 33.824219 77.992188 C 27.839844 77.992188 22.984375 73.140625 22.984375 67.15625 L 22.984375 33.828125 C 22.984375 27.84375 27.839844 22.992188 33.824219 22.992188 L 67.484375 22.992188 C 67.761719 22.992188 67.984375 23.214844 67.984375 23.492188 C 67.984375 23.769531 67.761719 23.992188 67.484375 23.992188 L 33.824219 23.992188 C 28.390625 23.992188 23.984375 28.394531 23.984375 33.828125 L 23.984375 67.152344 C 23.984375 72.585938 28.390625 76.992188 33.824219 76.992188 L 67.148438 76.992188 C 72.582031 76.992188 76.984375 72.589844 76.984375 67.15625 L 76.984375 48.492188 C 76.984375 48.214844 77.210938 47.992188 77.484375 47.992188 C 77.761719 47.992188 77.984375 48.214844 77.984375 48.492188 L 77.984375 67.152344 C 77.984375 73.140625 73.132812 77.992188 67.148438 77.992188 Z M 77.484375 45.570312 C 77.210938 45.570312 76.984375 45.347656 76.984375 45.070312 L 76.984375 41.070312 C 76.984375 40.796875 77.210938 40.570312 77.484375 40.570312 C 77.761719 40.570312 77.984375 40.796875 77.984375 41.070312 L 77.984375 45.070312 C 77.984375 45.347656 77.761719 45.570312 77.484375 45.570312 Z M 77.484375 39.570312 C 77.210938 39.570312 76.984375 39.347656 76.984375 39.070312 L 76.984375 37.070312 C 76.984375 36.796875 77.210938 36.570312 77.484375 36.570312 C 77.761719 36.570312 77.984375 36.796875 77.984375 37.070312 L 77.984375 39.070312 C 77.984375 39.347656 77.761719 39.570312 77.484375 39.570312 Z M 77.484375 39.570312 "/>
<path style=" stroke:none;fill-rule:nonzero;fill:rgb(100%,100%,100%);fill-opacity:1;" d="M 29.5 39.5 L 29.5 65.5 C 29.5 65.5 32.480469 62.5 38.5 62.5 C 46.5 62.5 49.539062 69.5 49.539062 69.5 L 49.539062 40.5 C 49.539062 40.5 46.5 34.5 39.519531 34.5 C 31.5 34.5 29.5 39.5 29.5 39.5 Z M 29.5 39.5 "/>
<path style=" stroke:none;fill-rule:nonzero;fill:rgb(100%,100%,100%);fill-opacity:1;" d="M 71.539062 39.5 L 71.539062 65.5 C 71.539062 65.5 68.558594 62.5 62.539062 62.5 C 54.539062 62.5 51.5 69.5 51.5 69.5 L 51.5 40.5 C 51.5 40.5 54.539062 34.5 61.519531 34.5 C 69.539062 34.5 71.539062 39.5 71.539062 39.5 Z M 71.539062 39.5 "/>
<path style="fill:none;stroke-width:1;stroke-linecap:round;stroke-linejoin:round;stroke:rgb(12.156863%,12.941177%,16.862746%);stroke-opacity:1;stroke-miterlimit:10;" d="M 50.74 67.94 L 50.74 112.66 C 50.74 112.66 55.866406 107.5 66.22 107.5 C 79.98 107.5 85.207188 119.54 85.207188 119.54 L 85.207188 69.66 C 85.207188 69.66 79.98 59.34 67.973594 59.34 C 54.18 59.34 50.74 67.94 50.74 67.94 Z M 50.74 67.94 " transform="matrix(0.581395,0,0,0.581395,0,0)"/>
<path style="fill:none;stroke-width:1;stroke-linecap:round;stroke-linejoin:round;stroke:rgb(12.156863%,12.941177%,16.862746%);stroke-opacity:1;stroke-miterlimit:10;" d="M 123.047187 67.94 L 123.047187 112.66 C 123.047187 112.66 117.920781 107.5 107.567188 107.5 C 93.807187 107.5 88.58 119.54 88.58 119.54 L 88.58 69.66 C 88.58 69.66 93.807187 59.34 105.813594 59.34 C 119.607187 59.34 123.047187 67.94 123.047187 67.94 Z M 123.047187 67.94 " transform="matrix(0.581395,0,0,0.581395,0,0)"/>
</g>
</svg>
